<svg xmlns="http://www.w3.org/2000/svg" xmlns:xlink="http://www.w3.org/1999/xlink" width="1000" height="759.85"><rect width="1000" height="759.85" rx="0" ry="0" class="a"/><svg height="759.85" viewBox="0 0 100 75.985" width="1000" xmlns="http://www.w3.org/2000/svg" xmlns:xlink="http://www.w3.org/1999/xlink"><style>@keyframes k{0%{transform:translateX(0)}5.2%{transform:translateX(-100px)}5.3%{transform:translateX(-200px)}12.1%{transform:translateX(-300px)}17.1%{transform:translateX(-400px)}20.4%{transform:translateX(-500px)}23.1%{transform:translateX(-600px)}26.5%{transform:translateX(-700px)}28.2%{transform:translateX(-800px)}29.9%{transform:translateX(-900px)}30.3%{transform:translateX(-1000px)}33.2%{transform:translateX(-1100px)}36.8%{transform:translateX(-1200px)}37.8%{transform:translateX(-1300px)}39.6%{transform:translateX(-1400px)}40.6%{transform:translateX(-1500px)}42%{transform:translateX(-1600px)}43.5%{transform:translateX(-1700px)}44.8%{transform:translateX(-1800px)}46.4%{transform:translateX(-1900px)}48.4%{transform:translateX(-2000px)}51.8%{transform:translateX(-2100px)}59.6%{transform:translateX(-2200px)}65.1%{transform:translateX(-2300px)}79.5%{transform:translateX(-2400px)}81.8%{transform:translateX(-2700px)}81.9%{transform:translateX(-2800px)}82.3%{transform:translateX(-3000px)}to{transform:translateX(-3100px)}}.a{fill:#282d35}.c,.d,.g,.h{fill:#b9c0cb;white-space:pre}.d,.g,.h{fill:#dbab79}.g,.h{fill:#66c2cd}.h{fill:#d290e4;font-weight:700}</style><g font-family="Monaco,Consolas,Menlo,'Bitstream Vera Sans Mono','Powerline Symbols',monospace" font-size="1.67"><defs><symbol id="1"><text y="1.67" class="c">(base)</text><text x="7.014" y="1.67" class="d">pkruczkiewicz</text><text x="20.04" y="1.67" style="white-space:pre" fill="#e88388">@</text><text x="21.042" y="1.67" class="d">ncfadlaptop</text><text x="34.068" y="1.67" style="white-space:pre" fill="#71bef2">/tmp</text></symbol><symbol id="2"><text y="1.67" class="g">15:51:54</text><text x="9.018" y="1.67" class="h">$</text><text x="11.022" y="1.67" class="c">nextflow</text></symbol><symbol id="3"><text y="1.67" class="g">15:51:54</text><text x="9.018" y="1.67" class="h">$</text><text x="11.022" y="1.67" class="c">nextflow</text><text x="20.04" y="1.67" class="c">run</text></symbol><symbol id="4"><text y="1.67" class="g">15:51:54</text><text x="9.018" y="1.67" class="h">$</text><text x="11.022" y="1.67" class="c">nextflow</text><text x="20.04" y="1.67" class="c">run</text><text x="24.048" y="1.67" class="c">hello</text></symbol><symbol id="5"><text y="1.67" class="c">N</text><text x="2.004" y="1.67" class="c">E</text><text x="4.008" y="1.67" class="c">X</text><text x="6.012" y="1.67" class="c">T</text><text x="8.016" y="1.67" class="c">F</text><text x="10.02" y="1.67" class="c">L</text><text x="12.024" y="1.67" class="c">O</text><text x="14.028" y="1.67" class="c">W</text><text x="17.034" y="1.67" class="c">~</text><text x="20.04" y="1.67" class="c">version</text><text x="28.056" y="1.67" class="c">20.04.1</text></symbol><symbol id="6"><text y="1.67" class="c">Launching</text><text x="10.02" y="1.67" class="c">`nextflow-io/hello`</text><text x="30.06" y="1.67" class="c">[scruffy_sax]</text><text x="44.088" y="1.67" class="c">-</text><text x="46.092" y="1.67" class="c">revision:</text><text x="56.112" y="1.67" class="c">96eb04d6a4</text><text x="67.134" y="1.67" class="c">[master]</text></symbol><symbol id="7"><text y="1.67" class="c">executor</text><text x="9.018" y="1.67" class="c">&gt;</text><text x="12.024" y="1.67" class="c">local</text><text x="18.036" y="1.67" class="c">(4)</text></symbol><symbol id="8"><text y="1.67" class="c">[0c/4b8055]</text><text x="12.024" y="1.67" class="c">process</text><text x="20.04" y="1.67" class="c">&gt;</text><text x="22.044" y="1.67" class="c">sayHello</text><text x="31.062" y="1.67" class="c">(2)</text><text x="35.07" y="1.67" class="c">[</text><text x="38.076" y="1.67" class="c">0%]</text><text x="42.084" y="1.67" class="c">0</text><text x="44.088" y="1.67" class="c">of</text><text x="47.094" y="1.67" class="c">4</text></symbol><symbol id="9"><text y="1.67" class="c">Hello</text><text x="6.012" y="1.67" class="c">world!</text></symbol><symbol id="10"><text y="1.67" class="c">[0c/4b8055]</text><text x="12.024" y="1.67" class="c">process</text><text x="20.04" y="1.67" class="c">&gt;</text><text x="22.044" y="1.67" class="c">sayHello</text><text x="31.062" y="1.67" class="c">(2)</text><text x="35.07" y="1.67" class="c">[100%]</text><text x="42.084" y="1.67" class="c">4</text><text x="44.088" y="1.67" class="c">of</text><text x="47.094" y="1.67" class="c">4</text><text x="49.098" y="1.67" class="c">✔</text></symbol><symbol id="11"><text y="1.67" class="c">Hola</text><text x="5.01" y="1.67" class="c">world!</text></symbol><symbol id="12"><text y="1.67" class="c">Bonjour</text><text x="8.016" y="1.67" class="c">world!</text></symbol><symbol id="13"><text y="1.67" class="c">Ciao</text><text x="5.01" y="1.67" class="c">world!</text></symbol><symbol id="a"><path fill="transparent" d="M0 0h100v35H0z"/></symbol><symbol id="b"><path fill="#6f7683" d="M0 0h1.102v2.171H0z"/></symbol></defs><path class="a" d="M0 0h100v75.985H0z"/><g style="animation-duration:8.746525s;animation-iteration-count:infinite;animation-name:k;animation-timing-function:steps(1,end)"><svg width="3200"><svg><use xlink:href="#a"/><use xlink:href="#b" x="-.004"/></svg><svg x="100"><use xlink:href="#a"/><use xlink:href="#b" x="-.004"/></svg><svg x="200"><use xlink:href="#a"/><use xlink:href="#b" x="10.996" y="2.146"/><use xlink:href="#1"/><text y="3.841" class="g">15:51:54</text><text x="9.018" y="3.841" class="h">$</text></svg><svg x="300"><use xlink:href="#a"/><use xlink:href="#b" x="11.996" y="2.146"/><use xlink:href="#1"/><text y="3.841" class="g">15:51:54</text><text x="9.018" y="3.841" class="h">$</text><text x="11.022" y="3.841" class="c">n</text></svg><svg x="400"><use xlink:href="#a"/><use xlink:href="#b" x="12.996" y="2.146"/><use xlink:href="#1"/><text y="3.841" class="g">15:51:54</text><text x="9.018" y="3.841" class="h">$</text><text x="11.022" y="3.841" class="c">ne</text></svg><svg x="500"><use xlink:href="#a"/><use xlink:href="#b" x="13.996" y="2.146"/><use xlink:href="#1"/><text y="3.841" class="g">15:51:54</text><text x="9.018" y="3.841" class="h">$</text><text x="11.022" y="3.841" class="c">nex</text></svg><svg x="600"><use xlink:href="#a"/><use xlink:href="#b" x="14.996" y="2.146"/><use xlink:href="#1"/><text y="3.841" class="g">15:51:54</text><text x="9.018" y="3.841" class="h">$</text><text x="11.022" y="3.841" class="c">next</text></svg><svg x="700"><use xlink:href="#a"/><use xlink:href="#b" x="15.996" y="2.146"/><use xlink:href="#1"/><text y="3.841" class="g">15:51:54</text><text x="9.018" y="3.841" class="h">$</text><text x="11.022" y="3.841" class="c">nextf</text></svg><svg x="800"><use xlink:href="#a"/><use xlink:href="#b" x="16.996" y="2.146"/><use xlink:href="#1"/><text y="3.841" class="g">15:51:54</text><text x="9.018" y="3.841" class="h">$</text><text x="11.022" y="3.841" class="c">nextfl</text></svg><svg x="900"><use xlink:href="#a"/><use xlink:href="#b" x="17.996" y="2.146"/><use xlink:href="#1"/><text y="3.841" class="g">15:51:54</text><text x="9.018" y="3.841" class="h">$</text><text x="11.022" y="3.841" class="c">nextflo</text></svg><svg x="1000"><use xlink:href="#a"/><use xlink:href="#b" x="18.996" y="2.146"/><use xlink:href="#1"/><use xlink:href="#2" y="2.171"/></svg><svg x="1100"><use xlink:href="#a"/><use xlink:href="#b" x="19.996" y="2.146"/><use xlink:href="#1"/><use xlink:href="#2" y="2.171"/></svg><svg x="1200"><use xlink:href="#a"/><use xlink:href="#b" x="20.996" y="2.146"/><use xlink:href="#1"/><text y="3.841" class="g">15:51:54</text><text x="9.018" y="3.841" class="h">$</text><text x="11.022" y="3.841" class="c">nextflow</text><text x="20.04" y="3.841" class="c">r</text></svg><svg x="1300"><use xlink:href="#a"/><use xlink:href="#b" x="21.996" y="2.146"/><use xlink:href="#1"/><text y="3.841" class="g">15:51:54</text><text x="9.018" y="3.841" class="h">$</text><text x="11.022" y="3.841" class="c">nextflow</text><text x="20.04" y="3.841" class="c">ru</text></svg><svg x="1400"><use xlink:href="#a"/><use xlink:href="#b" x="22.996" y="2.146"/><use xlink:href="#1"/><use xlink:href="#3" y="2.171"/></svg><svg x="1500"><use xlink:href="#a"/><use xlink:href="#b" x="23.996" y="2.146"/><use xlink:href="#1"/><use xlink:href="#3" y="2.171"/></svg><svg x="1600"><use xlink:href="#a"/><use xlink:href="#b" x="24.996" y="2.146"/><use xlink:href="#1"/><text y="3.841" class="g">15:51:54</text><text x="9.018" y="3.841" class="h">$</text><text x="11.022" y="3.841" class="c">nextflow</text><text x="20.04" y="3.841" class="c">run</text><text x="24.048" y="3.841" class="c">h</text></svg><svg x="1700"><use xlink:href="#a"/><use xlink:href="#b" x="25.996" y="2.146"/><use xlink:href="#1"/><text y="3.841" class="g">15:51:54</text><text x="9.018" y="3.841" class="h">$</text><text x="11.022" y="3.841" class="c">nextflow</text><text x="20.04" y="3.841" class="c">run</text><text x="24.048" y="3.841" class="c">he</text></svg><svg x="1800"><use xlink:href="#a"/><use xlink:href="#b" x="26.996" y="2.146"/><use xlink:href="#1"/><text y="3.841" class="g">15:51:54</text><text x="9.018" y="3.841" class="h">$</text><text x="11.022" y="3.841" class="c">nextflow</text><text x="20.04" y="3.841" class="c">run</text><text x="24.048" y="3.841" class="c">hel</text></svg><svg x="1900"><use xlink:href="#a"/><use xlink:href="#b" x="27.996" y="2.146"/><use xlink:href="#1"/><text y="3.841" class="g">15:51:54</text><text x="9.018" y="3.841" class="h">$</text><text x="11.022" y="3.841" class="c">nextflow</text><text x="20.04" y="3.841" class="c">run</text><text x="24.048" y="3.841" class="c">hell</text></svg><svg x="2000"><use xlink:href="#a"/><use xlink:href="#b" x="28.996" y="2.146"/><use xlink:href="#1"/><use xlink:href="#4" y="2.171"/></svg><svg x="2100"><use xlink:href="#a"/><use xlink:href="#b" x="-.004" y="4.317"/><use xlink:href="#1"/><use xlink:href="#4" y="2.171"/></svg><svg x="2200"><use xlink:href="#a"/><use xlink:href="#b" x="-.004" y="6.488"/><use xlink:href="#1"/><use xlink:href="#4" y="2.171"/><use xlink:href="#5" y="4.342"/></svg><svg x="2300"><use xlink:href="#a"/><use xlink:href="#b" x="-.004" y="8.659"/><use xlink:href="#1"/><use xlink:href="#4" y="2.171"/><use xlink:href="#5" y="4.342"/><use xlink:href="#6" y="6.513"/></svg><svg x="2400"><use xlink:href="#a"/><use xlink:href="#b" x="-.004" y="17.343"/><use xlink:href="#1"/><use xlink:href="#4" y="2.171"/><use xlink:href="#5" y="4.342"/><use xlink:href="#6" y="6.513"/><use xlink:href="#7" y="8.684"/><use xlink:href="#8" y="10.855"/><use xlink:href="#9" y="13.026"/></svg><svg x="2500"><use xlink:href="#a"/><use xlink:href="#b" x="-.004" y="8.659"/><use xlink:href="#1"/><use xlink:href="#4" y="2.171"/><use xlink:href="#5" y="4.342"/><use xlink:href="#6" y="6.513"/><use xlink:href="#7" y="8.684"/><use xlink:href="#8" y="10.855"/><use xlink:href="#9" y="13.026"/></svg><svg x="2600"><use xlink:href="#a"/><use xlink:href="#b" x="-.004" y="10.83"/><use xlink:href="#1"/><use xlink:href="#4" y="2.171"/><use xlink:href="#5" y="4.342"/><use xlink:href="#6" y="6.513"/><use xlink:href="#7" y="8.684"/><use xlink:href="#8" y="10.855"/><use xlink:href="#9" y="13.026"/></svg><svg x="2700"><use xlink:href="#a"/><use xlink:href="#b" x="-.004" y="30.369"/><use xlink:href="#1"/><use xlink:href="#4" y="2.171"/><use xlink:href="#5" y="4.342"/><use xlink:href="#6" y="6.513"/><use xlink:href="#7" y="8.684"/><use xlink:href="#10" y="10.855"/><use xlink:href="#9" y="13.026"/><use xlink:href="#11" y="17.368"/><use xlink:href="#12" y="21.71"/><use xlink:href="#13" y="26.052"/></svg><svg x="2800"><use xlink:href="#a"/><use xlink:href="#b" x="-.004" y="32.54"/><use xlink:href="#1"/><use xlink:href="#4" y="2.171"/><use xlink:href="#5" y="4.342"/><use xlink:href="#6" y="6.513"/><use xlink:href="#7" y="8.684"/><use xlink:href="#10" y="10.855"/><use xlink:href="#9" y="13.026"/><use xlink:href="#11" y="17.368"/><use xlink:href="#12" y="21.71"/><use xlink:href="#13" y="26.052"/></svg><svg x="2900"><use xlink:href="#a"/><use xlink:href="#b" x="-.004" y="32.54"/><use xlink:href="#1"/><use xlink:href="#4" y="2.171"/><use xlink:href="#5" y="4.342"/><use xlink:href="#6" y="6.513"/><use xlink:href="#7" y="8.684"/><use xlink:href="#10" y="10.855"/><use xlink:href="#9" y="13.026"/><use xlink:href="#11" y="17.368"/><use xlink:href="#12" y="21.71"/><use xlink:href="#13" y="26.052"/></svg><svg x="3000"><use xlink:href="#a"/><use xlink:href="#b" x="10.996" y="34.711"/><use xlink:href="#1"/><use xlink:href="#4" y="2.171"/><use xlink:href="#5" y="4.342"/><use xlink:href="#6" y="6.513"/><use xlink:href="#7" y="8.684"/><use xlink:href="#10" y="10.855"/><use xlink:href="#9" y="13.026"/><use xlink:href="#11" y="17.368"/><use xlink:href="#12" y="21.71"/><use xlink:href="#13" y="26.052"/><use xlink:href="#1" y="32.565"/><text y="36.406" class="g">15:52:01</text><text x="9.018" y="36.406" class="h">$</text></svg><svg x="3100"><use xlink:href="#a"/><use xlink:href="#b" x="-.004" y="36.882"/><use xlink:href="#1"/><use xlink:href="#4" y="2.171"/><use xlink:href="#5" y="4.342"/><use xlink:href="#6" y="6.513"/><use xlink:href="#7" y="8.684"/><use xlink:href="#10" y="10.855"/><use xlink:href="#9" y="13.026"/><use xlink:href="#11" y="17.368"/><use xlink:href="#12" y="21.71"/><use xlink:href="#13" y="26.052"/><use xlink:href="#1" y="32.565"/><text y="36.406" class="g">15:52:01</text><text x="9.018" y="36.406" class="h">$</text><text x="11.022" y="36.406" class="c">exit</text></svg></svg></g></g></svg></svg>